<svg width="1439" height="826" viewBox="0 0 1439 826" fill="none" xmlns="http://www.w3.org/2000/svg">
<rect width="1439" height="826" fill="url(#paint0_linear_2008_1932)"/>
<g clip-path="url(#clip0_2008_1932)">
<g opacity="0.1">
<mask id="mask0_2008_1932" style="mask-type:luminance" maskUnits="userSpaceOnUse" x="5" y="-16" width="50" height="504">
<path d="M54.208 487.866H5.63248V-16H54.208V487.866Z" fill="white"/>
</mask>
<g mask="url(#mask0_2008_1932)">
<path d="M51.3533 -16.0129H53.9493V439.514C53.9493 466.14 32.2902 487.805 5.66818 487.805V485.207C30.8589 485.207 51.3533 464.709 51.3533 439.514V-16.0129Z" fill="#8E8165"/>
</g>
<mask id="mask1_2008_1932" style="mask-type:luminance" maskUnits="userSpaceOnUse" x="5" y="-16" width="124" height="579">
<path d="M129 562.823H5.63421V-16H129V562.823Z" fill="white"/>
</mask>
<g mask="url(#mask1_2008_1932)">
<path d="M126.347 -16.0129H128.944V439.514C128.944 472.445 116.122 503.408 92.8367 526.7C69.5516 549.989 38.5965 562.814 5.66865 562.814V560.216C37.8997 560.216 68.2054 547.662 90.9997 524.863C113.796 502.063 126.347 471.754 126.347 439.515V-16.0129Z" fill="#8E8165"/>
</g>
<mask id="mask2_2008_1932" style="mask-type:luminance" maskUnits="userSpaceOnUse" x="5" y="-17" width="87" height="543">
<path d="M91.4796 525.554H5.63486V-16.0001H91.4796V525.554Z" fill="white"/>
</mask>
<g mask="url(#mask2_2008_1932)">
<path d="M88.8515 -16.0132H91.4491V439.513C91.4491 462.429 82.5244 483.973 66.3238 500.18C50.1233 516.384 28.5803 525.309 5.66985 525.309V522.711C27.8867 522.711 48.7754 514.057 64.4852 498.343C80.1984 482.627 88.8483 461.735 88.8483 439.515V-16.0132H88.8515Z" fill="#8E8165"/>
</g>
<mask id="mask3_2008_1932" style="mask-type:luminance" maskUnits="userSpaceOnUse" x="5" y="-16" width="106" height="561">
<path d="M110.321 544.398H5.63281V-15.9999H110.321V544.398Z" fill="white"/>
</mask>
<g mask="url(#mask3_2008_1932)">
<path d="M107.596 -16.0131H110.194V439.513C110.194 467.437 99.3223 493.691 79.5786 513.435C59.8367 533.182 33.5843 544.058 5.66683 544.058V541.461C32.8908 541.461 58.4888 530.854 77.7433 511.598C96.9946 492.344 107.596 466.744 107.596 439.513V-16.0131Z" fill="#8E8165"/>
</g>
<mask id="mask4_2008_1932" style="mask-type:luminance" maskUnits="userSpaceOnUse" x="5" y="-16" width="69" height="523">
<path d="M73.0526 506.711H5.63312V-15.9999H73.0526V506.711Z" fill="white"/>
</mask>
<g mask="url(#mask4_2008_1932)">
<path d="M70.1015 -16.0131H72.6991V439.513C72.6991 457.42 65.7291 474.255 53.0683 486.916C40.4076 499.58 23.5723 506.555 5.66893 506.555V503.957C22.8788 503.957 39.0597 497.252 51.2314 485.079C63.4014 472.907 70.1015 456.726 70.1015 439.513V-16.0131Z" fill="#8E8165"/>
</g>
<mask id="mask5_2008_1932" style="mask-type:luminance" maskUnits="userSpaceOnUse" x="-34" y="397" width="75" height="76">
<path d="M40.8105 472.791H-33.9993V397.834H40.8105V472.791Z" fill="white"/>
</mask>
<g mask="url(#mask5_2008_1932)">
<path d="M-33.9452 435.221C-33.9452 434.609 -33.9305 433.999 -33.901 433.389C-33.8716 432.777 -33.8258 432.169 -33.7653 431.56C-33.7064 430.952 -33.6311 430.345 -33.5412 429.74C-33.4512 429.134 -33.3481 428.533 -33.2287 427.934C-33.1093 427.334 -32.9752 426.736 -32.8263 426.144C-32.6775 425.551 -32.5155 424.962 -32.3372 424.378C-32.1606 423.792 -31.9676 423.211 -31.7631 422.636C-31.557 422.06 -31.3362 421.491 -31.1022 420.925C-30.8683 420.36 -30.6213 419.801 -30.3596 419.248C-30.0979 418.697 -29.8231 418.15 -29.5352 417.611C-29.2473 417.072 -28.9463 416.539 -28.6322 416.016C-28.3182 415.491 -27.991 414.975 -27.6508 414.467C-27.3122 413.958 -26.9589 413.457 -26.5957 412.967C-26.231 412.476 -25.8547 411.993 -25.4671 411.521C-25.0794 411.05 -24.6803 410.587 -24.2697 410.133C-23.8591 409.68 -23.4387 409.237 -23.0052 408.805C-22.5734 408.373 -22.1317 407.951 -21.6786 407.541C-21.2255 407.13 -20.7626 406.731 -20.2899 406.343C-19.8171 405.956 -19.3362 405.58 -18.8439 405.215C-18.3531 404.85 -17.8542 404.498 -17.3455 404.16C-16.8368 403.819 -16.3215 403.492 -15.7964 403.178C-15.273 402.864 -14.7414 402.562 -14.2016 402.274C-13.6634 401.986 -13.1171 401.711 -12.5642 401.449C-12.0113 401.188 -11.4535 400.941 -10.8875 400.707C-10.3232 400.473 -9.75394 400.253 -9.17816 400.047C-8.60237 399.841 -8.02168 399.648 -7.43771 399.472C-6.8521 399.293 -6.26323 399.131 -5.66945 398.983C-5.0773 398.834 -4.48026 398.7 -3.88157 398.58C-3.28124 398.461 -2.67928 398.358 -2.07569 398.268C-1.47046 398.178 -0.863586 398.102 -0.255085 398.042C0.353416 397.983 0.961922 397.937 1.57206 397.908C2.18383 397.878 2.79397 397.862 3.40575 397.862C4.01588 397.862 4.62766 397.878 5.2378 397.908C5.84793 397.937 6.45807 397.983 7.06658 398.042C7.67508 398.102 8.28195 398.178 8.88554 398.268C9.49077 398.358 10.0927 398.461 10.6931 398.58C11.2917 398.7 11.8888 398.834 12.4809 398.983C13.0747 399.131 13.6636 399.293 14.2476 399.472C14.8332 399.648 15.4139 399.841 15.988 400.047C16.5638 400.252 17.1347 400.473 17.699 400.707C18.2634 400.941 18.8228 401.188 19.3757 401.449C19.9269 401.711 20.4733 401.986 21.0131 402.274C21.5512 402.562 22.0829 402.864 22.6079 403.178C23.1314 403.492 23.6483 403.819 24.157 404.16C24.6641 404.498 25.1646 404.85 25.6554 405.215C26.1461 405.58 26.6286 405.956 27.1014 406.343C27.5741 406.731 28.0354 407.13 28.4885 407.541C28.9416 407.951 29.3849 408.373 29.8167 408.805C30.2486 409.237 30.6706 409.68 31.0812 410.133C31.4917 410.587 31.8909 411.05 32.2785 411.522C32.6662 411.993 33.0424 412.476 33.4056 412.967C33.7704 413.457 34.122 413.958 34.4623 414.467C34.8009 414.975 35.128 415.491 35.4421 416.016C35.7562 416.539 36.0588 417.072 36.3467 417.611C36.6346 418.15 36.9094 418.697 37.1711 419.248C37.4312 419.801 37.6798 420.36 37.9137 420.925C38.1477 421.491 38.3668 422.06 38.573 422.636C38.7791 423.211 38.9704 423.792 39.1487 424.378C39.3254 424.962 39.489 425.551 39.6378 426.144C39.785 426.736 39.9192 427.334 40.0386 427.934C40.158 428.533 40.2627 429.134 40.3527 429.74C40.4426 430.345 40.5162 430.952 40.5768 431.56C40.6373 432.169 40.6814 432.777 40.7109 433.389C40.742 433.999 40.7567 434.609 40.7567 435.221C40.7567 435.833 40.742 436.445 40.7109 437.055C40.6814 437.665 40.6373 438.275 40.5768 438.884C40.5162 439.492 40.4426 440.099 40.3527 440.703C40.2627 441.308 40.158 441.91 40.0386 442.51C39.9192 443.109 39.785 443.706 39.6378 444.3C39.489 444.892 39.3254 445.481 39.1487 446.066C38.9704 446.652 38.7791 447.231 38.573 447.807C38.3668 448.382 38.1477 448.953 37.9137 449.518C37.6798 450.084 37.4312 450.641 37.1711 451.194C36.9094 451.747 36.6346 452.294 36.3467 452.832C36.0588 453.372 35.7562 453.903 35.4421 454.428C35.128 454.952 34.8009 455.469 34.4623 455.977C34.122 456.486 33.7704 456.985 33.4056 457.476C33.0424 457.966 32.6662 458.449 32.2785 458.922C31.8909 459.394 31.4917 459.857 31.0812 460.31C30.6706 460.764 30.2486 461.205 29.8167 461.639C29.3849 462.071 28.9416 462.493 28.4885 462.903C28.0354 463.314 27.5741 463.713 27.1014 464.1C26.6286 464.488 26.1461 464.864 25.6554 465.228C25.1646 465.592 24.6657 465.944 24.157 466.284C23.6483 466.624 23.1314 466.952 22.6079 467.266C22.0829 467.58 21.5512 467.881 21.0131 468.169C20.4733 468.457 19.9269 468.731 19.3757 468.993C18.8228 469.255 18.2634 469.502 17.699 469.736C17.1347 469.971 16.5638 470.19 15.988 470.397C15.4139 470.603 14.8332 470.794 14.2476 470.972C13.6636 471.149 13.0747 471.313 12.4809 471.461C11.8888 471.609 11.2917 471.743 10.6931 471.862C10.0927 471.982 9.49077 472.086 8.88554 472.176C8.28195 472.266 7.67508 472.34 7.06658 472.4C6.45807 472.461 5.84793 472.505 5.2378 472.534C4.62766 472.566 4.01588 472.58 3.40575 472.58C2.79397 472.58 2.18383 472.566 1.57206 472.534C0.961922 472.505 0.353416 472.461 -0.255085 472.4C-0.863586 472.34 -1.47046 472.266 -2.07569 472.176C-2.67928 472.086 -3.28124 471.982 -3.88157 471.862C-4.48026 471.743 -5.0773 471.609 -5.66945 471.461C-6.26323 471.313 -6.8521 471.149 -7.43771 470.972C-8.02168 470.794 -8.60237 470.603 -9.17816 470.397C-9.75394 470.19 -10.3232 469.971 -10.8875 469.736C-11.4535 469.502 -12.0113 469.255 -12.5642 468.993C-13.1171 468.731 -13.6634 468.457 -14.2016 468.169C-14.7414 467.881 -15.273 467.58 -15.7964 467.266C-16.3215 466.952 -16.8384 466.624 -17.3455 466.284C-17.8542 465.944 -18.3531 465.592 -18.8455 465.228C-19.3362 464.864 -19.8171 464.488 -20.2899 464.1C-20.7626 463.713 -21.2255 463.314 -21.6786 462.903C-22.1317 462.493 -22.5734 462.071 -23.0052 461.639C-23.4387 461.205 -23.8591 460.764 -24.2697 460.31C-24.6803 459.857 -25.0794 459.394 -25.4671 458.922C-25.8547 458.449 -26.231 457.966 -26.5957 457.476C-26.9589 456.985 -27.3122 456.486 -27.6508 455.977C-27.991 455.469 -28.3182 454.952 -28.6322 454.428C-28.9463 453.903 -29.2473 453.372 -29.5352 452.832C-29.8231 452.294 -30.0979 451.747 -30.3596 451.194C-30.6213 450.641 -30.8683 450.084 -31.1022 449.518C-31.3362 448.953 -31.557 448.382 -31.7631 447.807C-31.9676 447.231 -32.1606 446.652 -32.3372 446.066C-32.5155 445.481 -32.6775 444.892 -32.8263 444.3C-32.9752 443.706 -33.1093 443.109 -33.2287 442.51C-33.3481 441.91 -33.4512 441.308 -33.5412 440.703C-33.6311 440.099 -33.7064 439.492 -33.7653 438.884C-33.8258 438.275 -33.8716 437.665 -33.901 437.055C-33.9305 436.445 -33.9452 435.833 -33.9452 435.221Z" fill="#E58949"/>
</g>
</g>
</g>
<defs>
<linearGradient id="paint0_linear_2008_1932" x1="719.5" y1="0" x2="719.5" y2="826" gradientUnits="userSpaceOnUse">
<stop stop-color="white"/>
<stop offset="1" stop-color="#FFF7EC"/>
</linearGradient>
<clipPath id="clip0_2008_1932">
<rect width="1439" height="826" fill="white"/>
</clipPath>
</defs>
</svg>
